<?xml version="1.0" standalone="no"?>
<!DOCTYPE svg PUBLIC "-//W3C//DTD SVG 20010904//EN"
 "http://www.w3.org/TR/2001/REC-SVG-20010904/DTD/svg10.dtd">
<svg version="1.0" xmlns="http://www.w3.org/2000/svg"
 width="1920.000000pt" height="1920.000000pt" viewBox="0 0 1920.000000 1920.000000"
 preserveAspectRatio="xMidYMid meet">

<g transform="translate(0.000000,1920.000000) scale(0.100000,-0.100000)"
fill="#000000" stroke="none">
<path d="M8171 14924 c0 -11 3 -14 6 -6 3 7 2 16 -1 19 -3 4 -6 -2 -5 -13z"/>
<path d="M8136 14823 c-145 -397 -355 -742 -656 -1077 -19 -21 -34 -43 -32
-48 1 -5 -1 -7 -6 -4 -5 3 -33 -20 -63 -50 -103 -106 -300 -267 -439 -360 -25
-17 -83 -50 -130 -74 -47 -24 -102 -54 -122 -67 -21 -12 -40 -23 -42 -23 -11
0 -252 -150 -381 -238 -947 -642 -1713 -1531 -2219 -2574 -364 -753 -558
-1453 -637 -2303 -16 -169 -16 -781 -1 -955 67 -736 191 -1283 435 -1910 113
-290 245 -559 414 -842 63 -105 64 -107 91 -97 136 53 448 168 582 214 91 32
168 60 172 64 3 3 -16 40 -44 81 -73 109 -206 337 -280 477 -36 68 -68 120
-73 115 -4 -4 -5 -2 -2 5 4 6 -10 49 -32 95 -259 551 -429 1150 -495 1748 -40
352 -41 414 -10 665 81 656 375 1290 821 1766 399 427 865 715 1445 893 93 29
106 35 73 35 -95 1 -397 -51 -560 -95 -377 -104 -683 -246 -989 -462 -172
-120 -271 -205 -434 -370 -79 -79 -145 -143 -147 -141 -2 2 25 90 59 194 253
765 662 1480 1190 2075 60 67 290 303 377 385 120 114 385 333 509 422 65 46
349 236 390 260 687 410 1401 659 2185 762 292 38 423 46 790 46 374 0 479 -7
800 -51 1113 -151 2163 -635 3020 -1394 121 -108 414 -400 494 -495 286 -335
496 -628 675 -943 89 -156 256 -484 256 -502 0 -6 5 -8 12 -4 6 4 8 3 5 -3 -4
-6 10 -48 29 -94 20 -46 53 -129 75 -184 57 -150 47 -97 -17 82 -119 337 -251
633 -409 918 -199 360 -444 714 -707 1020 -215 251 -673 695 -700 679 -6 -4
-8 -3 -5 3 12 19 -336 288 -563 435 -114 74 -200 128 -204 128 -1 0 -44 25
-94 55 -122 73 -387 209 -547 280 -303 133 -524 212 -900 320 -268 77 -698
150 -1095 186 -172 16 -744 16 -920 0 -443 -39 -868 -120 -1245 -237 -66 -20
-131 -39 -144 -42 -27 -6 -30 -12 34 88 202 318 347 687 425 1083 27 138 23
159 -14 60z"/>
<path d="M10335 11698 c-97 -84 -220 -337 -264 -538 -31 -144 -20 -284 32
-386 29 -57 54 -81 122 -121 44 -26 51 -35 62 -77 7 -27 14 -50 16 -52 2 -2
20 10 41 27 20 17 38 30 40 28 1 -2 12 -51 24 -108 19 -95 28 -121 35 -110 1
2 20 42 43 88 l41 85 75 -135 c89 -158 108 -214 108 -325 0 -197 -94 -433
-306 -766 -207 -326 -319 -616 -355 -919 -15 -131 -7 -394 16 -530 l18 -106
-139 -159 c-124 -141 -203 -235 -338 -399 -59 -72 -127 -91 -146 -40 -5 12
-14 76 -20 141 -21 223 -50 308 -153 453 -166 232 -276 531 -265 720 3 59 12
85 64 192 34 68 78 144 98 168 56 67 58 74 42 138 -8 32 -17 74 -20 94 -3 19
-20 57 -36 83 -17 26 -36 62 -44 80 -8 19 -23 37 -33 40 -11 4 -55 -1 -99 -9
-111 -21 -143 -19 -218 15 -92 41 -139 52 -222 52 -93 -1 -157 -19 -275 -80
-9 -4 -62 126 -94 232 -16 52 -31 84 -36 79 -17 -17 -29 -108 -36 -266 l-6
-158 -31 29 c-83 79 -162 113 -182 80 -12 -19 -6 -227 9 -363 9 -72 11 -146 7
-185 -7 -67 2 -252 19 -375 38 -282 16 -430 -81 -540 -42 -48 -125 -106 -293
-205 -77 -46 -176 -108 -220 -138 -415 -288 -646 -631 -731 -1087 -16 -82 -19
-149 -19 -375 0 -299 13 -419 74 -708 l29 -134 -67 -49 c-120 -88 -252 -141
-403 -161 -246 -33 -417 85 -473 326 -8 36 -20 145 -25 243 -21 370 -81 557
-226 699 -194 192 -531 205 -694 28 -38 -41 -60 -95 -60 -144 1 -39 34 -103
69 -133 65 -54 138 -57 267 -12 85 30 115 31 171 4 54 -26 96 -94 118 -194 9
-38 23 -178 30 -310 11 -191 19 -260 39 -339 87 -338 289 -487 699 -514 l102
-7 -150 -39 c-587 -151 -1226 -364 -1760 -586 -300 -125 -755 -334 -755 -347
0 -3 7 -2 17 1 9 4 127 36 262 71 1391 366 2898 601 4396 685 506 28 733 34
1350 34 719 0 1129 -14 1745 -60 1440 -107 2786 -333 4155 -698 71 -19 131
-33 132 -32 5 4 -276 137 -492 233 -337 150 -803 330 -1138 439 l-117 38 45
39 c63 54 86 103 92 199 l6 78 63 -59 c234 -219 510 -320 844 -308 168 6 257
26 386 86 241 113 394 297 464 556 41 151 37 478 -6 526 -24 26 -70 25 -88 -3
-9 -15 -16 -66 -19 -148 -9 -212 -67 -351 -201 -485 -64 -63 -99 -89 -166
-122 -240 -117 -503 -93 -733 66 -139 97 -278 263 -367 440 l-32 64 18 156
c23 193 26 668 6 831 -66 524 -240 951 -553 1353 -129 165 -265 309 -619 656
-444 435 -555 567 -665 796 -63 130 -90 223 -106 362 -22 197 26 443 131 672
26 56 38 70 76 90 92 49 164 154 164 240 0 71 -54 247 -186 609 -54 148 -288
372 -618 592 -110 74 -124 80 -170 80 -91 0 -284 -55 -508 -145 l-67 -27 -256
92 c-337 119 -400 140 -424 140 -11 0 -37 -14 -56 -32z m1641 -840 c-24 -84
-68 -140 -271 -348 -218 -224 -257 -280 -263 -374 -2 -34 1 -80 7 -102 15 -57
65 -127 104 -149 60 -32 105 -19 354 108 244 123 335 157 417 157 63 0 94 -16
50 -25 -117 -26 -167 -50 -391 -197 -207 -134 -245 -151 -360 -156 -85 -4 -98
-2 -147 22 -105 51 -157 137 -164 267 -9 186 52 283 343 544 94 84 206 190
250 236 44 46 81 81 83 77 2 -4 -3 -31 -12 -60z m-1700 -3620 c85 -190 289
-485 505 -733 l96 -110 7 -275 c3 -151 9 -296 13 -322 6 -54 -4 -61 -28 -20
-9 15 -29 43 -43 63 -26 35 -26 36 -33 278 l-6 243 -90 101 c-106 121 -276
346 -344 454 l-48 78 -3 -49 c-8 -126 69 -333 199 -537 l49 -76 6 -424 6 -424
-27 45 c-33 55 -126 182 -131 177 -2 -2 12 -49 31 -104 40 -122 73 -268 81
-367 6 -68 5 -74 -20 -101 -25 -29 -26 -29 -41 -11 -8 11 -24 45 -36 75 -66
176 -67 388 -4 641 l7 25 -22 -25 c-50 -57 -104 -194 -139 -350 -14 -63 -21
-80 -26 -65 -90 235 -185 443 -169 370 24 -112 36 -226 40 -400 l5 -200 -55
103 c-30 56 -75 131 -100 166 -25 36 -46 69 -46 74 0 6 -7 12 -15 16 -10 4
-15 -1 -15 -14 0 -30 -112 -213 -121 -198 -9 17 -28 205 -30 293 0 39 -3 79
-6 89 -8 28 -39 -57 -62 -169 l-18 -90 -23 45 c-53 104 -152 228 -233 292
l-41 33 33 -48 c50 -73 107 -193 141 -296 16 -51 30 -98 30 -104 0 -5 -22 27
-50 72 -64 106 -126 186 -116 151 33 -117 65 -255 70 -300 l6 -55 -50 94 c-55
103 -150 250 -175 271 -12 10 -11 2 6 -36 27 -64 85 -265 93 -329 l7 -50 -55
81 c-31 44 -90 116 -132 159 l-75 78 -12 113 c-15 156 0 280 68 551 61 240
105 447 140 653 l22 135 8 -60 c4 -33 5 -126 2 -207 l-6 -148 47 -24 c176 -89
354 -71 478 50 51 50 82 99 194 304 84 156 223 390 231 390 3 0 15 -19 25 -42z
m1553 -439 c1 -199 -28 -332 -143 -663 l-54 -153 39 -104 c54 -142 155 -346
226 -454 86 -131 88 -131 103 -38 31 200 102 348 224 468 88 87 165 132 278
162 92 25 251 22 355 -5 77 -21 217 -78 163 -67 -305 61 -578 -14 -756 -208
-106 -116 -154 -243 -155 -407 0 -117 18 -188 76 -306 61 -124 109 -174 269
-278 75 -49 135 -91 133 -92 -2 -2 -64 9 -139 25 -118 25 -142 33 -177 62 -84
69 -175 213 -211 336 -12 40 -16 43 -58 49 -72 11 -240 -3 -313 -25 -104 -33
-156 -92 -179 -205 l-12 -58 -36 5 c-21 4 -67 9 -104 13 -53 5 -68 10 -68 23
0 9 50 266 111 571 l110 555 59 125 c135 288 219 562 237 768 9 114 21 61 22
-99z m-3531 -529 c133 -73 227 -175 281 -306 40 -94 69 -249 79 -417 l8 -138
52 -72 c108 -149 143 -209 176 -294 l34 -88 -49 -8 c-49 -8 -50 -8 -98 35 -78
71 -162 90 -296 68 -110 -18 -258 -30 -290 -24 l-31 5 86 87 c51 52 104 119
132 167 60 101 126 274 146 385 39 215 -52 424 -263 598 -49 40 -37 41 33 2z
m2541 -525 c27 -88 51 -224 50 -284 0 -25 -3 -39 -6 -31 -3 8 -20 56 -38 105
-26 72 -34 111 -39 194 -3 60 -2 100 3 95 5 -5 19 -40 30 -79z m-924 -401 c21
-157 21 -156 -20 -109 -34 38 -35 43 -30 95 6 62 24 134 31 127 3 -2 11 -53
19 -113z m-776 -1 c23 -47 83 -234 77 -240 -5 -5 -25 38 -53 112 -21 57 -52
165 -47 165 2 0 12 -17 23 -37z m730 -375 c1 -5 -3 -8 -9 -8 -5 0 -10 12 -9
28 0 24 1 25 9 7 5 -11 9 -23 9 -27z"/>
<path d="M4818 6368 c-71 -19 -158 -117 -158 -179 0 -18 6 -13 31 25 35 52
117 119 167 137 18 6 29 15 26 20 -6 11 -17 10 -66 -3z"/>
</g>
</svg>
